<svg width="201" height="110" viewBox="0 0 201 110" fill="none" xmlns="http://www.w3.org/2000/svg">
<path d="M101.714 97.6807C101.714 100.561 102.381 102.774 103.714 104.32C105.047 105.867 106.954 106.641 109.434 106.641C111.967 106.641 113.9 105.88 115.233 104.36C116.567 102.814 117.233 100.587 117.233 97.6807V80.4004H120.514V97.5605C120.514 101.347 119.54 104.307 117.594 106.44C115.647 108.547 112.927 109.601 109.434 109.601C105.967 109.601 103.26 108.547 101.313 106.44C99.3935 104.307 98.4336 101.334 98.4336 97.5205V80.4004H101.714V97.6807Z" fill="white"></path>
<path fill-rule="evenodd" clip-rule="evenodd" d="M179.625 80C182.318 80 184.692 80.6266 186.745 81.8799C188.825 83.1332 190.452 84.8668 191.625 87.0801C192.798 89.2933 193.386 91.8398 193.386 94.7197C193.386 96.8796 193.039 98.8665 192.346 100.68C191.679 102.493 190.732 104.067 189.505 105.4C188.278 106.733 186.825 107.773 185.146 108.52C183.465 109.24 181.638 109.6 179.665 109.6C177.665 109.6 175.825 109.24 174.146 108.52C172.492 107.773 171.052 106.734 169.825 105.4C168.599 104.04 167.639 102.453 166.945 100.64C166.279 98.8264 165.945 96.8396 165.945 94.6797C165.945 91.8266 166.532 89.2933 167.705 87.0801C168.878 84.8668 170.492 83.1332 172.545 81.8799C174.625 80.6266 176.985 80.0001 179.625 80ZM179.625 82.96C177.545 82.96 175.732 83.4538 174.186 84.4404C172.639 85.4271 171.438 86.7997 170.585 88.5596C169.732 90.2928 169.306 92.3198 169.306 94.6396C169.306 96.9862 169.732 99.0666 170.585 100.88C171.465 102.667 172.679 104.08 174.226 105.12C175.772 106.133 177.572 106.64 179.625 106.64C181.678 106.64 183.479 106.133 185.025 105.12C186.599 104.08 187.825 102.653 188.705 100.84C189.585 99.0265 190.025 96.9596 190.025 94.6396C190.025 92.3465 189.585 90.3195 188.705 88.5596C187.852 86.7999 186.638 85.427 185.065 84.4404C183.519 83.4538 181.705 82.96 179.625 82.96Z" fill="white"></path>
<path d="M58.9209 79.96C61.8008 79.96 64.1075 80.7203 65.8408 82.2402C67.5741 83.7335 68.5741 85.8665 68.8408 88.6396H65.6416C65.2949 86.6399 64.5746 85.1735 63.4814 84.2402C62.4148 83.3069 60.8675 82.8398 58.8408 82.8398C56.921 82.8399 55.4279 83.2267 54.3613 84C53.2947 84.7733 52.7617 85.8669 52.7617 87.2803C52.7618 88.4801 53.1343 89.4402 53.8809 90.1602C54.6275 90.8802 55.788 91.5067 57.3613 92.04L62.5215 93.8398C64.7614 94.6132 66.4416 95.6667 67.5615 97C68.6814 98.3066 69.2412 99.9734 69.2412 102C69.2412 104.4 68.4147 106.266 66.7617 107.6C65.1351 108.906 62.8141 109.56 59.8008 109.56C56.4412 109.559 53.7616 108.733 51.7617 107.08C49.7884 105.427 48.6279 103.067 48.2812 100H51.4814C51.7748 102.213 52.6144 103.88 54.001 105C55.3876 106.12 57.3084 106.68 59.7617 106.68C61.8415 106.68 63.4015 106.293 64.4414 105.52C65.5079 104.72 66.041 103.56 66.041 102.04C66.041 100.733 65.6809 99.6933 64.9609 98.9199C64.241 98.1467 63.1213 97.5066 61.6016 97L56.7617 95.3203C54.3085 94.467 52.4946 93.4402 51.3213 92.2402C50.148 91.0136 49.5615 89.4663 49.5615 87.5996C49.5616 86.0531 49.9484 84.7195 50.7217 83.5996C51.495 82.4532 52.5879 81.5598 54.001 80.9199C55.4142 80.28 57.0544 79.96 58.9209 79.96Z" fill="white"></path>
<path d="M94.4424 83.2803H84.5625V109.2H81.2822V83.2803H71.4023V80.4004H94.4424V83.2803Z" fill="white"></path>
<path fill-rule="evenodd" clip-rule="evenodd" d="M136.832 80.4004C139.845 80.4004 142.472 81.0003 144.712 82.2002C146.952 83.3735 148.685 85.0403 149.912 87.2002C151.165 89.3335 151.792 91.8407 151.792 94.7207C151.792 97.6006 151.165 100.134 149.912 102.32C148.659 104.48 146.912 106.174 144.672 107.4C142.459 108.6 139.859 109.2 136.872 109.2H127.152V80.4004H136.832ZM130.433 106.32H136.832C139.232 106.32 141.299 105.841 143.032 104.881C144.765 103.894 146.099 102.521 147.032 100.761C147.966 99.0008 148.433 96.9605 148.433 94.6406C148.433 92.3474 147.966 90.3473 147.032 88.6406C146.099 86.934 144.766 85.614 143.032 84.6807C141.326 83.7473 139.259 83.2803 136.832 83.2803H130.433V106.32Z" fill="white"></path>
<path d="M160.511 109.2H157.23V80.4004H160.511V109.2Z" fill="white"></path>
<path d="M36.7998 92.7598H2.99219V104.656H0V89.96H36.7998V92.7598Z" fill="white"></path>
<path d="M69.0029 43.2803H53.3232V52.7607H67.8828V55.6406H53.3232V66.3203H69.3232V69.2002H50.043V40.4004H69.0029V43.2803Z" fill="white"></path>
<path d="M78.8311 66.3203H93.6309V69.2002H75.5508V40.4004H78.8311V66.3203Z" fill="white"></path>
<path d="M118.026 43.2803H102.347V52.7607H116.906V55.6406H102.347V66.3203H118.347V69.2002H99.0664V40.4004H118.026V43.2803Z" fill="white"></path>
<path d="M135.031 66.166L144.713 40.4004H148.033L136.913 69.2002H132.913L121.793 40.4004H125.312L135.031 66.166Z" fill="white"></path>
<path d="M171.854 43.2803H156.175V52.7607H170.734V55.6406H156.175V66.3203H172.175V69.2002H152.895V40.4004H171.854V43.2803Z" fill="white"></path>
<path d="M197.843 63.9365V40.4004H200.962V69.2002H197.562L181.522 45.6641V69.2002H178.402V40.4004H181.803L197.843 63.9365Z" fill="white"></path>
<path d="M36.7998 52.6699H2.99219V64.5664H0V49.8701H36.7998V52.6699Z" fill="white"></path>
<path fill-rule="evenodd" clip-rule="evenodd" d="M62.2812 0C64.9745 0 67.3481 0.62663 69.4014 1.87988C71.4813 3.1332 73.1079 4.86678 74.2812 7.08008C75.4545 9.29334 76.042 11.8398 76.042 14.7197C76.042 16.8796 75.6952 18.8665 75.002 20.6797C74.3353 22.493 73.3878 24.0671 72.1611 25.4004C70.9346 26.7334 69.4814 27.773 67.8018 28.5195C66.1218 29.2395 64.2946 29.5996 62.3213 29.5996C60.3214 29.5996 58.4817 29.2395 56.8018 28.5195C55.1485 27.7729 53.7081 26.7336 52.4814 25.4004C51.2548 24.0404 50.2949 22.453 49.6016 20.6396C48.935 18.8264 48.6016 16.8396 48.6016 14.6797C48.6016 11.8265 49.1881 9.29329 50.3613 7.08008C51.5346 4.86683 53.1479 3.1332 55.2012 1.87988C57.2811 0.626599 59.6414 4.94997e-05 62.2812 0ZM62.2812 2.95996C60.2014 2.96001 58.3884 3.45381 56.8418 4.44043C55.2952 5.42706 54.0945 6.79968 53.2412 8.55957C52.3879 10.2928 51.962 12.3198 51.9619 14.6396C51.9619 16.9862 52.388 19.0666 53.2412 20.8799C54.1212 22.6665 55.3352 24.0801 56.8818 25.1201C58.4284 26.1333 60.2282 26.6396 62.2812 26.6396C64.3346 26.6396 66.135 26.1335 67.6816 25.1201C69.255 24.0801 70.4813 22.6532 71.3613 20.8398C72.2413 19.0265 72.6816 16.9596 72.6816 14.6396C72.6816 12.3465 72.2413 10.3195 71.3613 8.55957C70.5081 6.79989 69.2947 5.427 67.7217 4.44043C66.175 3.45376 64.3613 2.95996 62.2812 2.95996Z" fill="white"></path>
<path d="M100.929 23.9365V0.400391H104.048V29.2002H100.648L84.6084 5.66406V29.2002H81.4883V0.400391H84.8887L100.929 23.9365Z" fill="white"></path>
<path d="M129.901 3.28027H114.222V12.7607H128.781V15.6406H114.222V26.3203H130.222V29.2002H110.941V0.400391H129.901V3.28027Z" fill="white"></path>
<path d="M36.7998 12.5693H2.99219V24.4658H0V9.76953H36.7998V12.5693Z" fill="white"></path>
</svg>