<svg width="300" height="300" viewBox="0 0 300 300" fill="none" xmlns="http://www.w3.org/2000/svg">
<rect width="300" height="300" fill="black"></rect>
<path d="M158.733 190.38C158.733 193.26 159.4 195.473 160.733 197.02C162.067 198.566 163.973 199.34 166.453 199.34C168.986 199.34 170.92 198.58 172.253 197.06C173.586 195.513 174.253 193.286 174.253 190.38V173.1H177.533V190.26C177.533 194.046 176.56 197.006 174.613 199.14C172.667 201.246 169.946 202.3 166.453 202.3C162.986 202.3 160.28 201.246 158.333 199.14C156.413 197.006 155.453 194.033 155.453 190.22V173.1H158.733V190.38Z" fill="white"></path>
<path fill-rule="evenodd" clip-rule="evenodd" d="M236.645 172.699C239.338 172.699 241.711 173.326 243.765 174.579C245.845 175.832 247.471 177.566 248.645 179.779C249.818 181.993 250.405 184.539 250.405 187.419C250.405 189.579 250.058 191.566 249.365 193.379C248.699 195.192 247.751 196.766 246.524 198.1C245.298 199.433 243.845 200.472 242.165 201.219C240.485 201.939 238.658 202.299 236.685 202.299C234.685 202.299 232.845 201.939 231.165 201.219C229.512 200.472 228.071 199.433 226.845 198.1C225.618 196.74 224.658 195.152 223.965 193.339C223.298 191.526 222.965 189.539 222.965 187.379C222.965 184.526 223.551 181.993 224.725 179.779C225.898 177.566 227.511 175.832 229.564 174.579C231.644 173.326 234.005 172.699 236.645 172.699ZM236.645 175.659C234.565 175.659 232.752 176.153 231.205 177.14C229.658 178.126 228.458 179.499 227.604 181.259C226.751 182.992 226.325 185.019 226.325 187.339C226.325 189.685 226.751 191.766 227.604 193.579C228.484 195.366 229.698 196.779 231.245 197.819C232.792 198.833 234.591 199.339 236.645 199.339C238.698 199.339 240.498 198.833 242.045 197.819C243.618 196.779 244.845 195.352 245.725 193.539C246.605 191.726 247.045 189.659 247.045 187.339C247.045 185.046 246.605 183.019 245.725 181.259C244.871 179.499 243.658 178.126 242.085 177.14C240.538 176.153 238.725 175.659 236.645 175.659Z" fill="white"></path>
<path d="M115.94 172.659C118.82 172.659 121.127 173.42 122.86 174.939C124.594 176.433 125.594 178.566 125.86 181.339H122.661C122.314 179.339 121.594 177.873 120.501 176.939C119.434 176.006 117.887 175.539 115.86 175.539C113.941 175.539 112.447 175.926 111.381 176.699C110.314 177.473 109.781 178.566 109.781 179.979C109.781 181.179 110.154 182.139 110.9 182.859C111.647 183.579 112.808 184.206 114.381 184.739L119.541 186.539C121.781 187.312 123.461 188.366 124.581 189.699C125.701 191.006 126.261 192.673 126.261 194.699C126.261 197.099 125.434 198.966 123.781 200.299C122.155 201.605 119.834 202.259 116.82 202.259C113.461 202.259 110.781 201.432 108.781 199.779C106.808 198.126 105.647 195.766 105.301 192.699H108.501C108.794 194.912 109.634 196.579 111.021 197.699C112.407 198.819 114.328 199.379 116.781 199.379C118.861 199.379 120.421 198.992 121.461 198.219C122.527 197.419 123.061 196.259 123.061 194.739C123.061 193.433 122.7 192.392 121.98 191.619C121.261 190.846 120.141 190.206 118.621 189.699L113.781 188.02C111.328 187.166 109.514 186.139 108.341 184.939C107.167 183.713 106.581 182.165 106.581 180.299C106.581 178.752 106.968 177.419 107.741 176.299C108.514 175.152 109.607 174.259 111.021 173.619C112.434 172.979 114.074 172.659 115.94 172.659Z" fill="white"></path>
<path d="M151.462 175.979H141.582V201.899H138.302V175.979H128.422V173.1H151.462V175.979Z" fill="white"></path>
<path fill-rule="evenodd" clip-rule="evenodd" d="M193.852 173.1C196.865 173.1 199.492 173.7 201.731 174.899C203.971 176.073 205.705 177.74 206.932 179.899C208.185 182.033 208.812 184.54 208.812 187.42C208.811 190.3 208.185 192.833 206.932 195.02C205.678 197.18 203.931 198.873 201.691 200.1C199.478 201.299 196.878 201.899 193.892 201.899H184.172V173.1H193.852ZM187.452 199.02H193.852C196.251 199.02 198.318 198.54 200.052 197.58C201.785 196.593 203.118 195.22 204.052 193.46C204.985 191.7 205.452 189.66 205.452 187.34C205.452 185.047 204.985 183.046 204.052 181.34C203.118 179.633 201.785 178.313 200.052 177.38C198.345 176.447 196.278 175.979 193.852 175.979H187.452V199.02Z" fill="white"></path>
<path d="M217.53 201.899H214.25V173.1H217.53V201.899Z" fill="white"></path>
<path d="M93.8193 185.459H60.0117V197.355H57.0195V182.659H93.8193V185.459Z" fill="white"></path>
<path d="M126.022 135.979H110.343V145.46H124.902V148.34H110.343V159.02H126.343V161.899H107.062V133.1H126.022V135.979Z" fill="white"></path>
<path d="M135.851 159.02H150.65V161.899H132.57V133.1H135.851V159.02Z" fill="white"></path>
<path d="M175.046 135.979H159.366V145.46H173.926V148.34H159.366V159.02H175.366V161.899H156.086V133.1H175.046V135.979Z" fill="white"></path>
<path d="M192.051 158.865L201.732 133.1H205.053L193.933 161.899H189.933L178.812 133.1H182.332L192.051 158.865Z" fill="white"></path>
<path d="M228.874 135.979H213.194V145.46H227.754V148.34H213.194V159.02H229.194V161.899H209.914V133.1H228.874V135.979Z" fill="white"></path>
<path d="M254.862 156.636V133.1H257.981V161.899H254.582L238.542 138.363V161.899H235.422V133.1H238.822L254.862 156.636Z" fill="white"></path>
<path d="M93.8193 145.369H60.0117V157.266H57.0195V142.569H93.8193V145.369Z" fill="white"></path>
<path fill-rule="evenodd" clip-rule="evenodd" d="M119.301 92.6992C121.994 92.6992 124.368 93.3258 126.421 94.5791C128.501 95.8324 130.127 97.566 131.301 99.7793C132.474 101.993 133.061 104.539 133.062 107.419C133.062 109.579 132.715 111.566 132.021 113.379C131.355 115.192 130.407 116.766 129.181 118.1C127.954 119.433 126.501 120.472 124.821 121.219C123.141 121.939 121.314 122.299 119.341 122.299C117.341 122.299 115.501 121.939 113.821 121.219C112.168 120.472 110.728 119.433 109.501 118.1C108.274 116.74 107.314 115.152 106.621 113.339C105.955 111.526 105.621 109.539 105.621 107.379C105.621 104.526 106.208 101.993 107.381 99.7793C108.554 97.566 110.167 95.8324 112.221 94.5791C114.301 93.3258 116.661 92.6993 119.301 92.6992ZM119.301 95.6592C117.221 95.6592 115.408 96.153 113.861 97.1396C112.315 98.1263 111.114 99.4989 110.261 101.259C109.407 102.992 108.981 105.019 108.981 107.339C108.981 109.685 109.407 111.766 110.261 113.579C111.141 115.366 112.355 116.779 113.901 117.819C115.448 118.833 117.248 119.339 119.301 119.339C121.354 119.339 123.155 118.833 124.701 117.819C126.275 116.779 127.501 115.352 128.381 113.539C129.261 111.726 129.701 109.659 129.701 107.339C129.701 105.046 129.261 103.019 128.381 101.259C127.528 99.4991 126.314 98.1262 124.741 97.1396C123.195 96.153 121.381 95.6592 119.301 95.6592Z" fill="white"></path>
<path d="M157.948 116.636V93.0996H161.067V121.899H157.668L141.628 98.3633V121.899H138.508V93.0996H141.908L157.948 116.636Z" fill="white"></path>
<path d="M186.921 95.9795H171.241V105.46H185.801V108.34H171.241V119.02H187.241V121.899H167.961V93.0996H186.921V95.9795Z" fill="white"></path>
<path d="M93.8193 105.269H60.0117V117.165H57.0195V102.469H93.8193V105.269Z" fill="white"></path>
</svg>